/* XPM */
static char * bottom_active_xpm[] = {
"32 6 3 1",
" 	c None",
".	c #4B4D50",
"+	c #949594",
"................................",
"................................",
"................................",
"................................",
"................................",
"++++++++++++++++++++++++++++++++"};
