/* XPM */
static char * bottom_right_active_xpm[] = {
"16 16 4 1",
" 	c None",
".	c #4B4D50",
"+	c #000000",
"@	c #949594",
"          .....+",
"          .....+",
"          .....+",
"          .....+",
"          .....+",
"          .....+",
"          .....+",
"          .....+",
"          .....+",
"         ......+",
"...............+",
"..............+ ",
"..............+ ",
".............@  ",
"...........@@   ",
"@@@@@@@@@@@     "};
